<svg width="155" height="39" viewBox="0 0 155 39" fill="none" xmlns="http://www.w3.org/2000/svg">
<g clip-path="url(#clip0_1_17)">
<path d="M24.6254 9.60309H18.8278L11.0916 26.4963H16.0552L21.7266 13.4483L27.398 26.4963H32.3571L24.6254 9.60309Z" fill="#FFB500"/>
<path d="M19.6302 38.9081L19.5897 38.9041H19.5852H19.5807H19.5761H19.5716C16.6548 38.644 13.8551 37.8597 11.3215 36.6354C6.43905 34.2666 2.57095 30.2494 0.884859 25.1438C-0.805742 20.0342 0.00123823 14.8006 2.66563 10.4713C4.03614 8.24256 5.90256 6.24994 8.17473 4.63744L8.21981 4.60543L8.22432 4.60143C11.5875 2.15667 15.7035 0.528164 20.1622 0.016005C20.1848 0.0120037 20.3335 0 20.3561 0L22.227 4.08527C22.2 4.08527 22.0467 4.09727 22.0196 4.10127C18.0433 4.32134 14.3556 5.64575 11.3846 7.76641C11.3395 7.79842 11.2899 7.83443 11.2449 7.86644C11.1727 7.91846 11.0961 7.97447 11.024 8.03049L11.0194 8.03449L11.0149 8.0385L11.0104 8.0425L11.0059 8.0465L11.0014 8.0505C10.9834 8.0665 10.9608 8.07851 10.9428 8.09051C9.25671 9.32289 7.87268 10.8234 6.84028 12.4959C4.75746 15.8769 4.13081 19.9662 5.45174 23.9594C6.77266 27.9527 9.78869 31.0937 13.5982 32.9382C15.6179 33.9185 17.8585 34.5347 20.1893 34.7228C25.2611 35.0949 30.0443 33.6464 33.7051 30.9816C33.8809 30.8536 34.0567 30.7215 34.2325 30.5855L36.1035 34.6748C31.5591 37.7637 25.757 39.4002 19.6302 38.9161V38.9081Z" fill="#FFB500"/>
<path d="M67.2106 6.71417H63.5634V25.628H67.2106V6.71417ZM72.2688 10.4953C73.5853 10.4953 74.5681 9.65108 74.5681 8.45471C74.5681 7.28634 73.5853 6.41407 72.2688 6.41407C70.9524 6.41407 69.9155 7.28634 69.9155 8.45471C69.9155 9.65108 70.9254 10.4953 72.2688 10.4953ZM74.0631 12.1118H70.3889V25.624H74.0631V12.1118ZM85.0092 9.09891C85.6809 9.09891 86.4969 9.27496 87.4482 9.64708L88.5978 7.11029C87.2498 6.4901 85.8793 6.19 84.5043 6.19C80.8887 6.19 78.4497 8.08259 78.4497 11.4916V12.1118H76.0378V14.8487H78.4497V25.624H82.0969V14.8487H86.8621V12.1118H82.0969V11.5637C82.0969 9.97118 83.1338 9.09891 85.0137 9.09891H85.0092Z" fill="black"/>
<path d="M57.0263 18.8579C57.0263 20.0262 56.6071 20.9985 55.764 21.7948C54.921 22.591 53.6181 22.9912 52.3017 22.9912C50.9852 22.9912 49.9123 22.599 49.0782 21.7948C48.2577 21.0065 47.843 20.0262 47.843 18.8579C47.843 17.7135 48.2577 16.7372 49.0782 15.945C49.9123 15.1407 50.9852 14.7486 52.3017 14.7486C53.6181 14.7486 54.9255 15.1447 55.764 15.945C56.6071 16.7412 57.0263 17.7135 57.0263 18.8579ZM56.9407 13.3682C55.5792 12.3279 53.9111 11.7917 51.9771 11.7917C49.8176 11.7917 47.7573 12.4639 46.3282 13.7843C44.8991 15.1047 44.1958 16.7972 44.1958 18.8099C44.1958 20.8265 44.8991 22.543 46.3282 23.9115C47.7573 25.2799 49.7906 25.9521 51.9771 25.9521C53.9697 25.9521 55.4439 25.4399 56.9407 24.3796V25.628H60.4165V12.1158H56.9407V13.3722V13.3682Z" fill="black"/>
<path d="M98.3626 25.9282C99.9045 25.9282 101.194 25.5281 102.177 24.7598C103.159 23.9876 103.664 23.0433 103.664 21.9229C103.664 20.4785 102.821 19.3582 101.113 18.5619C100.693 18.3618 100.017 18.0898 99.1516 17.7657L97.443 17.0694C96.6315 16.7213 96.2077 16.1732 96.2077 15.4529C96.2077 14.5327 96.9921 13.7604 98.4212 13.7604C99.7647 13.7604 100.833 14.2846 101.591 15.3289L103.272 14.0085C102.375 12.6161 100.495 11.8678 98.588 11.8678C97.1589 11.8678 95.9823 12.2159 95.1122 12.9121C94.2421 13.6084 93.8228 14.4806 93.8228 15.549C93.8228 16.9414 94.5802 18.0137 96.0679 18.734C96.4061 18.91 97.0192 19.1581 97.9479 19.5062C98.8721 19.8543 99.4626 20.1024 99.7692 20.2544C100.725 20.7266 101.198 21.3228 101.198 22.047C101.198 23.0673 100.103 23.9636 98.4528 23.9636C97.0778 23.9636 95.6757 23.2434 94.8056 21.8229L92.8986 22.9913C94.0212 24.9559 96.122 25.9282 98.3671 25.9282H98.3626ZM108.705 25.6281V18.1858C108.705 16.9654 109.088 15.9651 109.854 15.2009C110.63 14.4246 111.648 14.0325 112.911 14.0325C115.237 14.0325 116.81 15.501 116.81 18.1898V25.6321H119.304V17.5696C119.304 15.753 118.744 14.3846 117.595 13.4123C116.445 12.44 115.043 11.9679 113.389 11.9679C111.342 11.9679 109.548 12.7401 108.623 13.9605V6.79425H106.212V25.6321H108.709L108.705 25.6281ZM121.589 18.958C121.589 20.9226 122.32 22.5912 123.803 23.9356C125.286 25.28 127.166 25.9522 129.438 25.9522C131.71 25.9522 133.59 25.28 135.073 23.9356C136.557 22.5912 137.287 20.9226 137.287 18.958C137.287 17.0174 136.521 15.3809 135.042 14.0325C133.55 12.6721 131.706 11.9919 129.434 11.9919C127.161 11.9919 125.291 12.6721 123.798 14.0325C122.32 15.3809 121.585 17.0174 121.585 18.958H121.589ZM134.767 18.958C134.767 20.3265 134.262 21.4988 133.225 22.4671C132.188 23.4354 130.926 23.9116 129.438 23.9116C127.95 23.9116 126.688 23.4394 125.651 22.4671C124.614 21.4988 124.109 20.3265 124.109 18.958C124.109 17.6136 124.614 16.4693 125.651 15.501C126.688 14.5327 127.95 14.0325 129.438 14.0325C130.926 14.0325 132.188 14.5287 133.225 15.501C134.262 16.4693 134.767 17.6176 134.767 18.958ZM147.512 11.9919C145.271 11.9919 143.445 12.7881 142.075 14.3566V12.316H139.577V31.1058H142.075V23.6635C143.418 25.18 145.217 25.9522 147.458 25.9522C149.617 25.9522 151.42 25.284 152.841 23.9356C154.279 22.5752 155 20.9226 155 18.982C155 17.0414 154.27 15.3969 152.841 14.0285C151.411 12.6601 149.644 11.9879 147.512 11.9879V11.9919ZM147.232 23.9116C145.632 23.9116 144.356 23.4514 143.391 22.4911C142.422 21.5348 141.962 20.3505 141.962 18.958C141.962 17.5896 142.44 16.4172 143.391 15.4729C144.369 14.5006 145.636 14.0285 147.232 14.0285C148.801 14.0285 150.059 14.5086 151.046 15.4729C152.02 16.4252 152.502 17.5896 152.502 18.958C152.502 20.3505 152.034 21.5268 151.046 22.4911C150.072 23.4434 148.801 23.9116 147.232 23.9116Z" fill="black"/>
</g>
<defs>
<clipPath id="clip0_1_17">
<rect width="155" height="39" fill="white"/>
</clipPath>
</defs>
</svg>
